<svg xmlns="http://www.w3.org/2000/svg" xmlns:xlink="http://www.w3.org/1999/xlink" width="947" zoomAndPan="magnify" viewBox="0 0 710.25 264.749997" height="353" preserveAspectRatio="xMidYMid meet" version="1.0"><defs><g/><clipPath id="b153971a54"><path d="M 76 76 L 155.265625 76 L 155.265625 189 L 76 189 Z M 76 76 " clip-rule="nonzero"/></clipPath></defs><g clip-path="url(#b153971a54)"><path fill="#fa5217" d="M 110.175781 185.417969 C 109.570312 184.730469 109.035156 184.046875 108.464844 183.359375 C 107.910156 182.675781 107.394531 181.988281 106.859375 181.296875 L 106.0625 180.269531 L 105.3125 179.238281 L 103.816406 177.179688 C 101.847656 174.4375 100.007812 171.691406 98.265625 168.945312 C 94.765625 163.453125 91.65625 157.960938 88.792969 152.472656 C 85.929688 146.976562 83.371094 141.488281 81.316406 135.996094 C 80.273438 133.25 79.382812 130.503906 78.621094 127.757812 C 77.882812 125.015625 77.238281 122.265625 77 119.519531 C 75.117188 97.960938 91.074219 78.953125 112.640625 77.074219 C 134.207031 75.191406 153.21875 91.140625 155.101562 112.703125 C 155.296875 114.9375 155.277344 117.359375 155.101562 119.519531 C 154.863281 122.265625 154.222656 125.015625 153.480469 127.757812 C 152.722656 130.503906 151.832031 133.25 150.789062 135.996094 C 148.734375 141.488281 146.171875 146.976562 143.308594 152.472656 C 140.445312 157.960938 137.335938 163.453125 133.839844 168.945312 C 132.097656 171.691406 130.257812 174.4375 128.285156 177.179688 L 126.792969 179.238281 L 126.042969 180.269531 L 125.242188 181.296875 C 124.707031 181.988281 124.195312 182.675781 123.640625 183.359375 C 123.070312 184.046875 122.53125 184.730469 121.929688 185.417969 C 119.078125 188.664062 114.132812 188.980469 110.886719 186.128906 C 110.640625 185.917969 110.386719 185.65625 110.175781 185.417969 " fill-opacity="1" fill-rule="nonzero"/></g><path fill="#ffffff" d="M 146.722656 114.007812 C 146.722656 97.074219 132.988281 83.34375 116.046875 83.34375 C 99.105469 83.34375 85.367188 97.074219 85.367188 114.007812 C 85.367188 130.945312 99.105469 144.679688 116.046875 144.679688 C 132.988281 144.679688 146.722656 130.945312 146.722656 114.007812 " fill-opacity="1" fill-rule="nonzero"/><path fill="#fa5217" d="M 135.683594 105.824219 L 124.234375 105.824219 L 124.234375 94.375 C 124.234375 93.0625 123.167969 91.996094 121.855469 91.996094 L 110.238281 91.996094 C 108.921875 91.996094 107.855469 93.0625 107.855469 94.375 L 107.855469 105.824219 L 96.410156 105.824219 C 95.09375 105.824219 94.027344 106.886719 94.027344 108.203125 L 94.027344 119.816406 C 94.027344 121.132812 95.09375 122.195312 96.410156 122.195312 L 107.855469 122.195312 L 107.855469 133.640625 C 107.855469 134.957031 108.921875 136.023438 110.238281 136.023438 L 121.855469 136.023438 C 123.167969 136.023438 124.234375 134.957031 124.234375 133.640625 L 124.234375 122.195312 L 135.683594 122.195312 C 137 122.195312 138.0625 121.132812 138.0625 119.816406 L 138.0625 108.203125 C 138.0625 106.886719 137 105.824219 135.683594 105.824219 " fill-opacity="1" fill-rule="nonzero"/><g fill="#000000" fill-opacity="1"><g transform="translate(180.659492, 167.227712)"><g><path d="M 61.09375 -46.5625 C 62.070312 -46.5625 62.828125 -46.394531 63.359375 -46.0625 C 63.898438 -45.738281 64.171875 -45.320312 64.171875 -44.8125 C 64.171875 -44.570312 64.101562 -44.269531 63.96875 -43.90625 C 63.820312 -43.570312 63.617188 -43.273438 63.359375 -43.015625 C 63.109375 -42.765625 62.878906 -42.582031 62.671875 -42.46875 C 62.460938 -42.351562 62.3125 -42.25 62.21875 -42.15625 C 61.46875 -41.738281 60.859375 -41.269531 60.390625 -40.75 C 59.929688 -40.238281 59.535156 -39.445312 59.203125 -38.375 L 50.609375 -8.25 C 50.421875 -7.644531 50.328125 -7.0625 50.328125 -6.5 C 50.328125 -5.9375 50.410156 -5.492188 50.578125 -5.171875 C 50.742188 -4.847656 50.988281 -4.429688 51.3125 -3.921875 C 51.351562 -3.867188 51.476562 -3.691406 51.6875 -3.390625 C 51.90625 -3.085938 52.015625 -2.773438 52.015625 -2.453125 C 52.015625 -2.359375 51.96875 -2.125 51.875 -1.75 C 51.632812 -1.09375 51.1875 -0.632812 50.53125 -0.375 C 49.882812 -0.125 48.910156 0 47.609375 0 L 31.171875 0 C 30.191406 0 29.4375 -0.160156 28.90625 -0.484375 C 28.375 -0.816406 28.109375 -1.257812 28.109375 -1.8125 C 28.109375 -2.09375 28.175781 -2.394531 28.3125 -2.71875 C 28.5 -3.09375 28.753906 -3.40625 29.078125 -3.65625 C 29.410156 -3.914062 29.738281 -4.140625 30.0625 -4.328125 C 30.800781 -4.753906 31.40625 -5.234375 31.875 -5.765625 C 32.34375 -6.304688 32.738281 -7.132812 33.0625 -8.25 L 36.421875 -19.921875 L 24.046875 -19.921875 L 20.6875 -8.25 C 20.5 -7.644531 20.40625 -7.0625 20.40625 -6.5 C 20.40625 -5.9375 20.488281 -5.492188 20.65625 -5.171875 C 20.820312 -4.847656 21.066406 -4.429688 21.390625 -3.921875 C 21.441406 -3.867188 21.570312 -3.691406 21.78125 -3.390625 C 21.988281 -3.085938 22.09375 -2.773438 22.09375 -2.453125 C 22.09375 -2.359375 22.046875 -2.125 21.953125 -1.75 C 21.710938 -1.09375 21.265625 -0.632812 20.609375 -0.375 C 19.960938 -0.125 18.988281 0 17.6875 0 L 1.265625 0 C 0.285156 0 -0.46875 -0.160156 -1 -0.484375 C -1.539062 -0.816406 -1.8125 -1.257812 -1.8125 -1.8125 C -1.8125 -2.09375 -1.742188 -2.394531 -1.609375 -2.71875 C -1.421875 -3.09375 -1.160156 -3.40625 -0.828125 -3.65625 C -0.503906 -3.914062 -0.179688 -4.140625 0.140625 -4.328125 C 0.890625 -4.753906 1.492188 -5.234375 1.953125 -5.765625 C 2.421875 -6.304688 2.816406 -7.132812 3.140625 -8.25 L 11.75 -38.375 C 11.9375 -38.976562 12.03125 -39.5625 12.03125 -40.125 C 12.03125 -40.632812 11.945312 -41.0625 11.78125 -41.40625 C 11.613281 -41.757812 11.390625 -42.171875 11.109375 -42.640625 C 10.921875 -42.878906 10.757812 -43.125 10.625 -43.375 C 10.488281 -43.632812 10.421875 -43.90625 10.421875 -44.1875 C 10.421875 -44.28125 10.46875 -44.507812 10.5625 -44.875 C 10.738281 -45.476562 11.15625 -45.910156 11.8125 -46.171875 C 12.46875 -46.429688 13.445312 -46.5625 14.75 -46.5625 L 31.171875 -46.5625 C 32.148438 -46.5625 32.90625 -46.394531 33.4375 -46.0625 C 33.976562 -45.738281 34.25 -45.320312 34.25 -44.8125 C 34.25 -44.570312 34.179688 -44.269531 34.046875 -43.90625 C 33.898438 -43.570312 33.695312 -43.273438 33.4375 -43.015625 C 33.1875 -42.765625 32.957031 -42.582031 32.75 -42.46875 C 32.539062 -42.351562 32.390625 -42.25 32.296875 -42.15625 C 31.546875 -41.738281 30.9375 -41.269531 30.46875 -40.75 C 30.007812 -40.238281 29.617188 -39.445312 29.296875 -38.375 L 26 -26.90625 L 38.375 -26.90625 L 41.671875 -38.375 C 41.847656 -38.976562 41.9375 -39.5625 41.9375 -40.125 C 41.9375 -40.632812 41.851562 -41.0625 41.6875 -41.40625 C 41.53125 -41.757812 41.3125 -42.171875 41.03125 -42.640625 C 40.84375 -42.878906 40.675781 -43.125 40.53125 -43.375 C 40.394531 -43.632812 40.328125 -43.90625 40.328125 -44.1875 C 40.328125 -44.28125 40.375 -44.507812 40.46875 -44.875 C 40.65625 -45.476562 41.078125 -45.910156 41.734375 -46.171875 C 42.390625 -46.429688 43.367188 -46.5625 44.671875 -46.5625 Z M 61.09375 -46.5625 "/></g></g></g><g fill="#000000" fill-opacity="1"><g transform="translate(238.940842, 167.227712)"><g><path d="M 23.703125 -37.328125 C 29.617188 -37.328125 33.90625 -36.382812 36.5625 -34.5 C 39.21875 -32.613281 40.546875 -30.203125 40.546875 -27.265625 C 40.546875 -26.378906 40.453125 -25.5625 40.265625 -24.8125 C 39.566406 -21.738281 37.617188 -19.535156 34.421875 -18.203125 C 31.234375 -16.878906 27.472656 -16.21875 23.140625 -16.21875 C 20.953125 -16.21875 18.898438 -16.359375 16.984375 -16.640625 C 16.941406 -14.210938 17.59375 -12.507812 18.9375 -11.53125 C 20.289062 -10.550781 22.179688 -10.0625 24.609375 -10.0625 C 25.722656 -10.0625 26.789062 -10.1875 27.8125 -10.4375 C 28.84375 -10.695312 30.148438 -11.085938 31.734375 -11.609375 C 33.035156 -12.066406 33.921875 -12.296875 34.390625 -12.296875 C 34.898438 -12.296875 35.15625 -11.992188 35.15625 -11.390625 C 35.207031 -9.765625 34.601562 -8.050781 33.34375 -6.25 C 32.082031 -4.457031 30.21875 -2.929688 27.75 -1.671875 C 25.28125 -0.421875 22.300781 0.203125 18.8125 0.203125 C 13.632812 0.203125 9.390625 -1.097656 6.078125 -3.703125 C 2.773438 -6.316406 1.125 -10.113281 1.125 -15.09375 C 1.125 -16.5 1.304688 -18.132812 1.671875 -20 C 2.835938 -25.726562 5.390625 -30.046875 9.328125 -32.953125 C 13.265625 -35.867188 18.054688 -37.328125 23.703125 -37.328125 Z M 17.46875 -20.828125 C 17.65625 -20.785156 17.914062 -20.765625 18.25 -20.765625 C 20.207031 -20.765625 21.695312 -21.671875 22.71875 -23.484375 C 23.738281 -25.304688 24.226562 -27.335938 24.1875 -29.578125 C 24.144531 -30.878906 23.769531 -31.53125 23.0625 -31.53125 C 22.550781 -31.53125 21.945312 -31.117188 21.25 -30.296875 C 20.550781 -29.484375 19.863281 -28.257812 19.1875 -26.625 C 18.507812 -25 17.9375 -23.066406 17.46875 -20.828125 Z M 17.46875 -20.828125 "/></g></g></g><g fill="#000000" fill-opacity="1"><g transform="translate(278.074608, 167.227712)"><g><path d="M 24.953125 -36.984375 C 30.316406 -36.984375 34.601562 -35.988281 37.8125 -34 C 41.03125 -32.019531 42.640625 -29.003906 42.640625 -24.953125 C 42.640625 -23.421875 42.359375 -21.675781 41.796875 -19.71875 L 38.9375 -10.0625 C 38.894531 -9.875 38.875 -9.644531 38.875 -9.375 C 38.875 -8.625 39.175781 -8.25 39.78125 -8.25 C 40.332031 -8.25 40.804688 -8.492188 41.203125 -8.984375 C 41.597656 -9.472656 41.867188 -9.71875 42.015625 -9.71875 C 42.242188 -9.71875 42.441406 -9.550781 42.609375 -9.21875 C 42.773438 -8.894531 42.859375 -8.523438 42.859375 -8.109375 C 42.898438 -6.847656 42.421875 -5.566406 41.421875 -4.265625 C 40.421875 -2.960938 39.082031 -1.890625 37.40625 -1.046875 C 35.726562 -0.210938 33.882812 0.203125 31.875 0.203125 C 29.445312 0.203125 27.367188 -0.238281 25.640625 -1.125 C 23.921875 -2.007812 22.738281 -3.3125 22.09375 -5.03125 C 20.695312 -3.351562 19.039062 -2.0625 17.125 -1.15625 C 15.21875 -0.25 13.164062 0.203125 10.96875 0.203125 C 8.5 0.203125 6.425781 -0.269531 4.75 -1.21875 C 3.070312 -2.175781 1.828125 -3.410156 1.015625 -4.921875 C 0.203125 -6.441406 -0.203125 -8.039062 -0.203125 -9.71875 C -0.203125 -10.457031 -0.132812 -11.179688 0 -11.890625 C 0.75 -15.097656 2.367188 -17.515625 4.859375 -19.140625 C 7.347656 -20.773438 10.316406 -21.59375 13.765625 -21.59375 C 17.640625 -21.59375 21.441406 -20.988281 25.171875 -19.78125 L 26.90625 -24.390625 C 27.519531 -26.347656 27.828125 -27.863281 27.828125 -28.9375 C 27.773438 -30.0625 27.398438 -30.898438 26.703125 -31.453125 C 26.003906 -32.015625 24.929688 -32.296875 23.484375 -32.296875 C 23.765625 -31.546875 23.90625 -30.773438 23.90625 -29.984375 C 23.90625 -28.265625 23.253906 -26.773438 21.953125 -25.515625 C 20.648438 -24.253906 18.785156 -23.625 16.359375 -23.625 C 14.078125 -23.625 12.296875 -24.125 11.015625 -25.125 C 9.734375 -26.132812 9.09375 -27.382812 9.09375 -28.875 C 9.09375 -31.195312 10.394531 -33.128906 13 -34.671875 C 15.613281 -36.210938 19.597656 -36.984375 24.953125 -36.984375 Z M 21.046875 -15.796875 C 19.734375 -15.796875 18.671875 -15.296875 17.859375 -14.296875 C 17.046875 -13.296875 16.640625 -12.210938 16.640625 -11.046875 C 16.640625 -10.296875 16.8125 -9.6875 17.15625 -9.21875 C 17.507812 -8.757812 18.015625 -8.53125 18.671875 -8.53125 C 19.273438 -8.53125 19.9375 -8.773438 20.65625 -9.265625 C 21.375 -9.753906 21.898438 -10.488281 22.234375 -11.46875 L 23.703125 -15.59375 C 22.910156 -15.726562 22.023438 -15.796875 21.046875 -15.796875 Z M 21.046875 -15.796875 "/></g></g></g><g fill="#000000" fill-opacity="1"><g transform="translate(323.777241, 167.227712)"><g><path d="M 22.296875 -51.65625 C 25.003906 -51.65625 27 -51.140625 28.28125 -50.109375 C 29.5625 -49.085938 30.203125 -47.691406 30.203125 -45.921875 C 30.203125 -44.898438 30.035156 -43.898438 29.703125 -42.921875 L 18.734375 -7.265625 C 18.597656 -6.710938 18.53125 -6.222656 18.53125 -5.796875 C 18.53125 -5.191406 18.644531 -4.710938 18.875 -4.359375 C 19.101562 -4.015625 19.429688 -3.679688 19.859375 -3.359375 C 20.179688 -3.023438 20.410156 -2.753906 20.546875 -2.546875 C 20.691406 -2.335938 20.71875 -2.070312 20.625 -1.75 C 20.382812 -1.144531 19.914062 -0.703125 19.21875 -0.421875 C 18.519531 -0.140625 17.453125 0 16.015625 0 L 0.0625 0 C -1.144531 0 -2.023438 -0.195312 -2.578125 -0.59375 C -3.140625 -0.988281 -3.328125 -1.515625 -3.140625 -2.171875 C -2.953125 -2.722656 -2.460938 -3.210938 -1.671875 -3.640625 C -0.972656 -4.003906 -0.394531 -4.441406 0.0625 -4.953125 C 0.53125 -5.472656 0.929688 -6.289062 1.265625 -7.40625 L 11.890625 -42.296875 C 12.023438 -42.710938 12.09375 -43.0625 12.09375 -43.34375 C 12.09375 -43.851562 11.960938 -44.269531 11.703125 -44.59375 C 11.453125 -44.925781 11.117188 -45.253906 10.703125 -45.578125 C 10.234375 -45.953125 9.894531 -46.28125 9.6875 -46.5625 C 9.476562 -46.84375 9.441406 -47.210938 9.578125 -47.671875 C 9.859375 -48.742188 11.328125 -49.675781 13.984375 -50.46875 C 16.640625 -51.257812 19.410156 -51.65625 22.296875 -51.65625 Z M 22.296875 -51.65625 "/></g></g></g><g fill="#000000" fill-opacity="1"><g transform="translate(349.353945, 167.227712)"><g><path d="M 31.25 -36.078125 C 32.132812 -36.078125 32.820312 -35.890625 33.3125 -35.515625 C 33.800781 -35.140625 34.046875 -34.625 34.046875 -33.96875 C 34.046875 -33.78125 34 -33.457031 33.90625 -33 C 33.300781 -30.945312 31.898438 -29.921875 29.703125 -29.921875 L 25.65625 -29.921875 L 20.40625 -12.65625 C 20.175781 -11.957031 20.0625 -11.234375 20.0625 -10.484375 C 20.0625 -9.648438 20.296875 -9.066406 20.765625 -8.734375 C 21.234375 -8.410156 21.882812 -8.25 22.71875 -8.25 C 23.46875 -8.25 24.398438 -8.34375 25.515625 -8.53125 C 26.078125 -8.664062 26.566406 -8.734375 26.984375 -8.734375 C 27.304688 -8.734375 27.550781 -8.628906 27.71875 -8.421875 C 27.882812 -8.210938 27.96875 -7.945312 27.96875 -7.625 C 28.007812 -6.6875 27.316406 -5.550781 25.890625 -4.21875 C 24.472656 -2.894531 22.550781 -1.753906 20.125 -0.796875 C 17.707031 0.148438 15.03125 0.625 12.09375 0.625 C 8.925781 0.625 6.382812 -0.09375 4.46875 -1.53125 C 2.5625 -2.976562 1.609375 -4.960938 1.609375 -7.484375 C 1.609375 -8.648438 1.796875 -9.765625 2.171875 -10.828125 L 6.640625 -24.671875 C 6.867188 -25.460938 6.984375 -26.09375 6.984375 -26.5625 C 6.984375 -27.5 6.757812 -28.289062 6.3125 -28.9375 C 5.875 -29.59375 5.257812 -30.269531 4.46875 -30.96875 C 3.769531 -31.625 3.28125 -32.171875 3 -32.609375 C 2.726562 -33.054688 2.660156 -33.582031 2.796875 -34.1875 C 2.984375 -34.789062 3.378906 -35.253906 3.984375 -35.578125 C 4.585938 -35.910156 5.539062 -36.078125 6.84375 -36.078125 L 10.765625 -36.078125 L 15.171875 -40.46875 C 16.703125 -42.007812 18.109375 -43.082031 19.390625 -43.6875 C 20.679688 -44.289062 22.347656 -44.59375 24.390625 -44.59375 C 27.328125 -44.59375 28.796875 -43.476562 28.796875 -41.25 C 28.796875 -40.550781 28.703125 -39.894531 28.515625 -39.28125 L 27.546875 -36.078125 Z M 31.25 -36.078125 "/></g></g></g><g fill="#000000" fill-opacity="1"><g transform="translate(379.403077, 167.227712)"><g><path d="M 42.859375 -9.640625 C 42.765625 -9.460938 42.71875 -9.1875 42.71875 -8.8125 C 42.71875 -8.476562 42.796875 -8.21875 42.953125 -8.03125 C 43.117188 -7.851562 43.34375 -7.765625 43.625 -7.765625 C 44.175781 -7.765625 44.648438 -8.007812 45.046875 -8.5 C 45.453125 -8.988281 45.722656 -9.234375 45.859375 -9.234375 C 46.085938 -9.234375 46.269531 -9.078125 46.40625 -8.765625 C 46.550781 -8.460938 46.625 -8.101562 46.625 -7.6875 C 46.675781 -6.332031 46.234375 -5.015625 45.296875 -3.734375 C 44.367188 -2.453125 43.003906 -1.40625 41.203125 -0.59375 C 39.410156 0.21875 37.257812 0.625 34.75 0.625 C 31.664062 0.625 29.210938 -0.0820312 27.390625 -1.5 C 25.578125 -2.925781 24.648438 -4.828125 24.609375 -7.203125 C 24.609375 -8.921875 25.023438 -10.851562 25.859375 -13 L 29.703125 -23.0625 C 29.941406 -23.675781 30.0625 -24.164062 30.0625 -24.53125 C 30.0625 -25.144531 29.863281 -25.625 29.46875 -25.96875 C 29.070312 -26.320312 28.59375 -26.5 28.03125 -26.5 C 27.144531 -26.5 26.25 -26.085938 25.34375 -25.265625 C 24.4375 -24.453125 23.703125 -23.140625 23.140625 -21.328125 L 23.140625 -21.46875 L 18.734375 -7.265625 C 18.597656 -6.710938 18.53125 -6.222656 18.53125 -5.796875 C 18.53125 -5.191406 18.644531 -4.710938 18.875 -4.359375 C 19.101562 -4.015625 19.429688 -3.679688 19.859375 -3.359375 C 20.179688 -3.023438 20.410156 -2.753906 20.546875 -2.546875 C 20.691406 -2.335938 20.71875 -2.070312 20.625 -1.75 C 20.382812 -1.144531 19.914062 -0.703125 19.21875 -0.421875 C 18.519531 -0.140625 17.453125 0 16.015625 0 L 0.0625 0 C -1.144531 0 -2.023438 -0.195312 -2.578125 -0.59375 C -3.140625 -0.988281 -3.328125 -1.515625 -3.140625 -2.171875 C -2.953125 -2.722656 -2.460938 -3.210938 -1.671875 -3.640625 C -0.972656 -4.003906 -0.394531 -4.441406 0.0625 -4.953125 C 0.53125 -5.472656 0.929688 -6.289062 1.265625 -7.40625 L 11.890625 -42.296875 C 12.023438 -42.710938 12.09375 -43.0625 12.09375 -43.34375 C 12.09375 -43.851562 11.960938 -44.269531 11.703125 -44.59375 C 11.453125 -44.925781 11.117188 -45.253906 10.703125 -45.578125 C 10.234375 -45.953125 9.894531 -46.28125 9.6875 -46.5625 C 9.476562 -46.84375 9.441406 -47.210938 9.578125 -47.671875 C 9.859375 -48.742188 11.328125 -49.675781 13.984375 -50.46875 C 16.640625 -51.257812 19.410156 -51.65625 22.296875 -51.65625 C 25.003906 -51.65625 27 -51.140625 28.28125 -50.109375 C 29.5625 -49.085938 30.203125 -47.691406 30.203125 -45.921875 C 30.203125 -44.898438 30.035156 -43.898438 29.703125 -42.921875 L 25.9375 -30.625 C 27.75 -33 29.671875 -34.648438 31.703125 -35.578125 C 33.734375 -36.515625 35.9375 -36.984375 38.3125 -36.984375 C 41.15625 -36.984375 43.445312 -36.117188 45.1875 -34.390625 C 46.9375 -32.671875 47.8125 -30.4375 47.8125 -27.6875 C 47.8125 -26.238281 47.578125 -24.816406 47.109375 -23.421875 Z M 42.859375 -9.640625 "/></g></g></g><g fill="#000000" fill-opacity="1"><g transform="translate(429.019093, 167.227712)"><g><path d="M 8.734375 -24.609375 C 9.066406 -25.960938 9.742188 -27.007812 10.765625 -27.75 C 11.785156 -28.5 13.046875 -28.875 14.546875 -28.875 L 30.828125 -28.875 C 33.390625 -28.875 34.671875 -27.867188 34.671875 -25.859375 C 34.671875 -25.347656 34.625 -24.929688 34.53125 -24.609375 C 33.644531 -21.765625 31.6875 -20.34375 28.65625 -20.34375 L 12.375 -20.34375 C 11.113281 -20.34375 10.15625 -20.585938 9.5 -21.078125 C 8.851562 -21.566406 8.53125 -22.273438 8.53125 -23.203125 C 8.53125 -23.671875 8.597656 -24.140625 8.734375 -24.609375 Z M 8.734375 -24.609375 "/></g></g></g><g fill="#000000" fill-opacity="1"><g transform="translate(468.781779, 167.227712)"><g><path d="M 54.453125 -46.5625 C 56.367188 -46.5625 57.328125 -45.953125 57.328125 -44.734375 C 57.328125 -44.410156 57.300781 -44.179688 57.25 -44.046875 C 57.113281 -43.578125 56.90625 -43.210938 56.625 -42.953125 C 56.34375 -42.703125 55.945312 -42.410156 55.4375 -42.078125 C 54.738281 -41.660156 54.15625 -41.195312 53.6875 -40.6875 C 53.21875 -40.175781 52.820312 -39.382812 52.5 -38.3125 L 43.828125 -7.265625 C 43.035156 -4.472656 42.046875 -2.515625 40.859375 -1.390625 C 39.671875 -0.273438 38.03125 0.28125 35.9375 0.28125 C 34.070312 0.28125 32.519531 -0.265625 31.28125 -1.359375 C 30.050781 -2.453125 28.898438 -4.144531 27.828125 -6.4375 L 17.265625 -28.65625 L 11.390625 -8.25 C 11.253906 -7.644531 11.1875 -7.109375 11.1875 -6.640625 C 11.1875 -6.035156 11.289062 -5.535156 11.5 -5.140625 C 11.707031 -4.742188 12 -4.335938 12.375 -3.921875 C 12.882812 -3.304688 13.140625 -2.789062 13.140625 -2.375 C 13.140625 -2.09375 13.117188 -1.882812 13.078125 -1.75 C 12.890625 -1.09375 12.46875 -0.632812 11.8125 -0.375 C 11.15625 -0.125 10.175781 0 8.875 0 L 1.265625 0 C -0.648438 0 -1.609375 -0.601562 -1.609375 -1.8125 C -1.609375 -2.144531 -1.582031 -2.378906 -1.53125 -2.515625 C -1.394531 -2.984375 -1.1875 -3.34375 -0.90625 -3.59375 C -0.625 -3.851562 -0.226562 -4.144531 0.28125 -4.46875 C 0.976562 -4.894531 1.554688 -5.363281 2.015625 -5.875 C 2.484375 -6.382812 2.882812 -7.175781 3.21875 -8.25 L 12.09375 -39.640625 L 10.96875 -41.9375 C 10.507812 -42.875 10.28125 -43.691406 10.28125 -44.390625 C 10.28125 -45.835938 11.210938 -46.5625 13.078125 -46.5625 L 23.421875 -46.5625 C 24.910156 -46.5625 26.039062 -46.222656 26.8125 -45.546875 C 27.582031 -44.867188 28.410156 -43.664062 29.296875 -41.9375 L 39.5 -21.46875 L 44.328125 -38.3125 C 44.460938 -38.957031 44.53125 -39.492188 44.53125 -39.921875 C 44.53125 -40.523438 44.425781 -41.023438 44.21875 -41.421875 C 44.007812 -41.816406 43.71875 -42.222656 43.34375 -42.640625 C 42.832031 -43.242188 42.578125 -43.757812 42.578125 -44.1875 C 42.578125 -44.457031 42.597656 -44.664062 42.640625 -44.8125 C 42.828125 -45.457031 43.242188 -45.910156 43.890625 -46.171875 C 44.546875 -46.429688 45.53125 -46.5625 46.84375 -46.5625 Z M 54.453125 -46.5625 "/></g></g></g><g fill="#000000" fill-opacity="1"><g transform="translate(519.585761, 167.227712)"><g><path d="M 24.953125 -36.984375 C 30.316406 -36.984375 34.601562 -35.988281 37.8125 -34 C 41.03125 -32.019531 42.640625 -29.003906 42.640625 -24.953125 C 42.640625 -23.421875 42.359375 -21.675781 41.796875 -19.71875 L 38.9375 -10.0625 C 38.894531 -9.875 38.875 -9.644531 38.875 -9.375 C 38.875 -8.625 39.175781 -8.25 39.78125 -8.25 C 40.332031 -8.25 40.804688 -8.492188 41.203125 -8.984375 C 41.597656 -9.472656 41.867188 -9.71875 42.015625 -9.71875 C 42.242188 -9.71875 42.441406 -9.550781 42.609375 -9.21875 C 42.773438 -8.894531 42.859375 -8.523438 42.859375 -8.109375 C 42.898438 -6.847656 42.421875 -5.566406 41.421875 -4.265625 C 40.421875 -2.960938 39.082031 -1.890625 37.40625 -1.046875 C 35.726562 -0.210938 33.882812 0.203125 31.875 0.203125 C 29.445312 0.203125 27.367188 -0.238281 25.640625 -1.125 C 23.921875 -2.007812 22.738281 -3.3125 22.09375 -5.03125 C 20.695312 -3.351562 19.039062 -2.0625 17.125 -1.15625 C 15.21875 -0.25 13.164062 0.203125 10.96875 0.203125 C 8.5 0.203125 6.425781 -0.269531 4.75 -1.21875 C 3.070312 -2.175781 1.828125 -3.410156 1.015625 -4.921875 C 0.203125 -6.441406 -0.203125 -8.039062 -0.203125 -9.71875 C -0.203125 -10.457031 -0.132812 -11.179688 0 -11.890625 C 0.75 -15.097656 2.367188 -17.515625 4.859375 -19.140625 C 7.347656 -20.773438 10.316406 -21.59375 13.765625 -21.59375 C 17.640625 -21.59375 21.441406 -20.988281 25.171875 -19.78125 L 26.90625 -24.390625 C 27.519531 -26.347656 27.828125 -27.863281 27.828125 -28.9375 C 27.773438 -30.0625 27.398438 -30.898438 26.703125 -31.453125 C 26.003906 -32.015625 24.929688 -32.296875 23.484375 -32.296875 C 23.765625 -31.546875 23.90625 -30.773438 23.90625 -29.984375 C 23.90625 -28.265625 23.253906 -26.773438 21.953125 -25.515625 C 20.648438 -24.253906 18.785156 -23.625 16.359375 -23.625 C 14.078125 -23.625 12.296875 -24.125 11.015625 -25.125 C 9.734375 -26.132812 9.09375 -27.382812 9.09375 -28.875 C 9.09375 -31.195312 10.394531 -33.128906 13 -34.671875 C 15.613281 -36.210938 19.597656 -36.984375 24.953125 -36.984375 Z M 21.046875 -15.796875 C 19.734375 -15.796875 18.671875 -15.296875 17.859375 -14.296875 C 17.046875 -13.296875 16.640625 -12.210938 16.640625 -11.046875 C 16.640625 -10.296875 16.8125 -9.6875 17.15625 -9.21875 C 17.507812 -8.757812 18.015625 -8.53125 18.671875 -8.53125 C 19.273438 -8.53125 19.9375 -8.773438 20.65625 -9.265625 C 21.375 -9.753906 21.898438 -10.488281 22.234375 -11.46875 L 23.703125 -15.59375 C 22.910156 -15.726562 22.023438 -15.796875 21.046875 -15.796875 Z M 21.046875 -15.796875 "/></g></g></g><g fill="#000000" fill-opacity="1"><g transform="translate(565.288394, 167.227712)"><g><path d="M 34.109375 -36.984375 C 36.578125 -36.984375 38.628906 -36.097656 40.265625 -34.328125 C 41.898438 -32.554688 42.71875 -30.128906 42.71875 -27.046875 C 42.71875 -22.898438 41.269531 -18.660156 38.375 -14.328125 C 35.488281 -9.992188 31.832031 -6.414062 27.40625 -3.59375 C 22.976562 -0.78125 18.664062 0.625 14.46875 0.625 C 10.457031 0.625 7.207031 -0.1875 4.71875 -1.8125 C 2.226562 -3.445312 0.984375 -5.78125 0.984375 -8.8125 C 0.984375 -9.925781 1.191406 -11.179688 1.609375 -12.578125 L 6.015625 -27.609375 C 6.109375 -27.984375 6.15625 -28.265625 6.15625 -28.453125 C 6.15625 -28.921875 6.035156 -29.316406 5.796875 -29.640625 C 5.566406 -29.960938 5.242188 -30.3125 4.828125 -30.6875 C 4.128906 -31.289062 3.78125 -31.828125 3.78125 -32.296875 C 3.726562 -32.953125 4.117188 -33.648438 4.953125 -34.390625 C 5.796875 -35.140625 6.972656 -35.757812 8.484375 -36.25 C 10.003906 -36.738281 11.71875 -36.984375 13.625 -36.984375 C 16.75 -36.984375 19.1875 -36.222656 20.9375 -34.703125 C 22.6875 -33.191406 23.5625 -31.222656 23.5625 -28.796875 C 23.5625 -27.722656 23.375 -26.5625 23 -25.3125 L 18.453125 -10.34375 C 18.316406 -9.925781 18.25 -9.578125 18.25 -9.296875 C 18.25 -8.691406 18.457031 -8.222656 18.875 -7.890625 C 19.289062 -7.566406 19.875 -7.40625 20.625 -7.40625 C 21.644531 -7.40625 22.84375 -7.859375 24.21875 -8.765625 C 25.59375 -9.679688 26.957031 -10.988281 28.3125 -12.6875 C 29.664062 -14.382812 30.757812 -16.398438 31.59375 -18.734375 C 29.726562 -20.367188 28.410156 -21.976562 27.640625 -23.5625 C 26.878906 -25.144531 26.5 -26.773438 26.5 -28.453125 C 26.5 -30.828125 27.148438 -32.84375 28.453125 -34.5 C 29.753906 -36.15625 31.640625 -36.984375 34.109375 -36.984375 Z M 34.109375 -36.984375 "/></g></g></g><g fill="#000000" fill-opacity="1"><g transform="translate(607.147519, 167.227712)"><g><path d="M 8.3125 -14.125 C 10.175781 -14.125 11.75 -13.492188 13.03125 -12.234375 C 14.3125 -10.972656 14.953125 -9.4375 14.953125 -7.625 C 14.953125 -6.363281 14.613281 -5.125 13.9375 -3.90625 C 13.269531 -2.695312 12.34375 -1.707031 11.15625 -0.9375 C 9.96875 -0.175781 8.625 0.203125 7.125 0.203125 C 5.3125 0.203125 3.773438 -0.421875 2.515625 -1.671875 C 1.253906 -2.929688 0.601562 -4.472656 0.5625 -6.296875 C 0.5625 -7.546875 0.882812 -8.773438 1.53125 -9.984375 C 2.1875 -11.203125 3.109375 -12.195312 4.296875 -12.96875 C 5.484375 -13.738281 6.820312 -14.125 8.3125 -14.125 Z M 8.3125 -14.125 "/></g></g></g></svg>